HIERARCHY
ROOT Hips
{
	OFFSET 0.000000 0.000000 0.000000
	CHANNELS 6 Xposition Yposition Zposition Zrotation Yrotation Xrotation 
	JOINT LHipJoint
	{
		OFFSET 0.000000 0.000000 0.000000
		CHANNELS 3 Zrotation Yrotation Xrotation
		JOINT LeftUpLeg
		{
			OFFSET 1.363060 -1.794630 0.839290
			CHANNELS 3 Zrotation Yrotation Xrotation
			JOINT LeftLeg
			{
				OFFSET 2.448110 -6.726130 0.000000
				CHANNELS 3 Zrotation Yrotation Xrotation
				JOINT LeftFoot
				{
					OFFSET 2.562200 -7.039590 0.000000
					CHANNELS 3 Zrotation Yrotation Xrotation
					JOINT LeftToeBase
					{
						OFFSET 0.157640 -0.433110 2.322550
						CHANNELS 3 Zrotation Yrotation Xrotation
						End Site
						{
							OFFSET 0.000000 0.000000 0.000000
						}
					}
				}
			}
		}
	}
	JOINT RHipJoint
	{
		OFFSET 0.000000 0.000000 0.000000
		CHANNELS 3 Zrotation Yrotation Xrotation
		JOINT RightUpLeg
		{
			OFFSET -1.305520 -1.794630 0.839290
			CHANNELS 3 Zrotation Yrotation Xrotation
			JOINT RightLeg
			{
				OFFSET -2.542530 -6.985550 0.000000
				CHANNELS 3 Zrotation Yrotation Xrotation
				JOINT RightFoot
				{
					OFFSET -2.568260 -7.056230 0.000000
					CHANNELS 3 Zrotation Yrotation Xrotation
					JOINT RightToeBase
					{
						OFFSET -0.164730 -0.452590 2.363150
						CHANNELS 3 Zrotation Yrotation Xrotation
						End Site
						{
							OFFSET 0.000000 0.000000 0.000000
						}
					}
				}
			}
		}
	}
	JOINT LowerBack
	{
		OFFSET 0.000000 0.000000 0.000000
		CHANNELS 3 Zrotation Yrotation Xrotation
		JOINT Spine
		{
			OFFSET 0.028270 2.035590 -0.193380
			CHANNELS 3 Zrotation Yrotation Xrotation
			JOINT Spine1
			{
				OFFSET 0.056720 2.048850 -0.042750
				CHANNELS 3 Zrotation Yrotation Xrotation
				JOINT Neck
				{
					OFFSET 0.000000 0.000000 0.000000
					CHANNELS 3 Zrotation Yrotation Xrotation
					JOINT Neck1
					{
						OFFSET -0.054170 1.746240 0.172020
						CHANNELS 3 Zrotation Yrotation Xrotation
						JOINT Head
						{
							OFFSET 0.104070 1.761360 -0.123970
							CHANNELS 3 Zrotation Yrotation Xrotation
							End Site
							{
								OFFSET 0.000000 0.000000 0.000000
							}
						}
					}
				}
				JOINT LeftShoulder
				{
					OFFSET 0.000000 0.000000 0.000000
					CHANNELS 3 Zrotation Yrotation Xrotation
					JOINT LeftArm
					{
						OFFSET 3.362410 1.200890 -0.311210
						CHANNELS 3 Zrotation Yrotation Xrotation
						JOINT LeftForeArm
						{
							OFFSET 4.983000 -0.000000 -0.000000
							CHANNELS 3 Zrotation Yrotation Xrotation
							JOINT LeftHand
							{
								OFFSET 3.483560 -0.000000 -0.000000
								CHANNELS 3 Zrotation Yrotation Xrotation
								JOINT LeftFingerBase
								{
									OFFSET 0.000000 0.000000 0.000000
									CHANNELS 3 Zrotation Yrotation Xrotation
									JOINT LeftHandIndex1
									{
										OFFSET 0.715260 -0.000000 -0.000000
										CHANNELS 3 Zrotation Yrotation Xrotation
										End Site
										{
											OFFSET 0.000000 0.000000 0.000000
										}
									}
								}
								JOINT LThumb
								{
									OFFSET 0.000000 0.000000 0.000000
									CHANNELS 3 Zrotation Yrotation Xrotation
									End Site
									{
										OFFSET 0.000000 0.000000 0.000000
									}
								}
							}
						}
					}
				}
				JOINT RightShoulder
				{
					OFFSET 0.000000 0.000000 0.000000
					CHANNELS 3 Zrotation Yrotation Xrotation
					JOINT RightArm
					{
						OFFSET -3.136600 1.374050 -0.404650
						CHANNELS 3 Zrotation Yrotation Xrotation
						JOINT RightForeArm
						{
							OFFSET -5.241900 -0.000000 -0.000000
							CHANNELS 3 Zrotation Yrotation Xrotation
							JOINT RightHand
							{
								OFFSET -3.444170 -0.000000 -0.000000
								CHANNELS 3 Zrotation Yrotation Xrotation
								JOINT RightFingerBase
								{
									OFFSET 0.000000 0.000000 0.000000
									CHANNELS 3 Zrotation Yrotation Xrotation
									JOINT RightHandIndex1
									{
										OFFSET -0.622530 -0.000000 -0.000000
										CHANNELS 3 Zrotation Yrotation Xrotation
										End Site
										{
											OFFSET 0.000000 0.000000 0.000000
										}
									}
								}
								JOINT RThumb
								{
									OFFSET 0.000000 0.000000 0.000000
									CHANNELS 3 Zrotation Yrotation Xrotation
									End Site
									{
										OFFSET 0.000000 0.000000 0.000000
									}
								}
							}
						}
					}
				}
			}
		}
	}
}
MOTION
Frames: 8
Frame Time: 0.008333
-9.978254 18.138051 -1.930279 146.683157 85.788314 166.844654 -9.216665 1.386873 3.294457 -11.984899 -0.312576 -32.352347 -3.133957 -1.051148 4.332269 0.368127 3.082184 3.730383 1.065700 -0.000000 -47.767700 10.661470 -3.263623 0.577642 7.500968 -2.758584 -7.418936 0.474863 -1.651406 21.855064 0.089648 6.641656 25.388129 3.495799 -0.000000 -64.793500 -0.394137 0.145011 -4.083994 0.112890 0.180472 -3.265935 -1.142756 0.052239 1.401921 0.297298 -3.380775 -7.334605 0.687199 0.048904 0.086224 0.000000 0.000000 0.000000 15.581909 10.067103 3.299158 43.589852 -64.811223 -18.494655 -0.180530 -57.415790 0.097236 -28.885437 15.905109 -4.240630 0.619083 -0.159113 0.000000 0.000000 0.000000 0.000000 0.000000 0.000000 0.000000 -9.435726 1.036389 2.150511 0.758618 64.563580 20.270513 0.646001 38.684086 0.024442 23.765920 -6.349886 -1.371532 -0.421198 0.056113 0.000000 0.000000 0.000000 0.000000 0.000000 0.000000 0.000000 
-9.758230 18.104071 -1.933730 146.780554 86.041400 166.597956 -9.207803 1.336645 3.209214 -12.054507 0.297085 -32.429938 -3.269115 -1.113004 3.429695 0.155444 1.667462 4.006657 0.783600 0.000000 -49.414200 10.701823 -3.253104 0.487279 7.375877 -2.850959 -7.187769 0.339336 -1.743495 23.555650 0.017425 6.424335 25.377958 3.414599 -0.000000 -64.850101 -0.363858 0.098592 -3.914136 0.107987 0.132533 -3.253117 -1.188208 0.008379 1.302166 0.396350 -3.752029 -7.292265 0.664222 0.046476 0.097692 0.000000 0.000000 0.000000 15.307384 9.634754 3.111856 41.339327 -64.172482 -17.908219 -0.066942 -58.838884 0.103010 -27.284753 15.458871 -3.879449 0.598312 -0.131017 0.000000 0.000000 0.000000 0.000000 0.000000 0.000000 0.000000 -9.205831 0.817701 2.251169 -0.299519 64.732997 19.608055 0.590662 39.858182 0.027984 23.394210 -6.786111 -1.441529 -0.417524 0.055012 0.000000 0.000000 0.000000 0.000000 0.000000 0.000000 0.000000 
-9.538857 18.057843 -1.935553 146.434043 86.247489 165.876582 -9.190320 1.297141 3.131801 -12.090927 0.719825 -32.454665 -3.360464 -1.139275 2.903851 -0.001651 0.577924 4.249163 0.561300 0.000000 -50.773699 10.757130 -3.230192 0.380864 7.196028 -2.961741 -6.993148 0.199122 -1.842147 25.466684 -0.060155 6.050199 25.056178 3.223100 0.000000 -64.911200 -0.379363 0.033427 -3.731498 0.089309 0.069098 -3.246536 -1.251916 -0.049841 1.160703 0.532003 -4.036860 -7.192940 0.626459 0.041787 0.125633 0.000000 0.000000 0.000000 14.991541 9.058885 2.908814 39.088785 -63.413413 -17.489959 0.042629 -60.178960 0.108245 -25.401034 14.319267 -3.328671 0.575834 -0.085421 0.000000 0.000000 0.000000 0.000000 0.000000 0.000000 0.000000 -8.915468 0.697918 2.325338 -1.066421 64.812057 18.620539 0.529888 40.803899 0.032030 22.628566 -6.935534 -1.422123 -0.408260 0.046114 0.000000 0.000000 0.000000 0.000000 0.000000 0.000000 0.000000 
-9.319999 17.999094 -1.936081 145.706609 86.411152 164.762893 -9.167024 1.268645 3.077697 -12.051013 0.898382 -32.430421 -3.401280 -1.132015 2.732507 -0.098171 -0.115525 4.457317 0.416600 -0.000000 -51.769799 10.825597 -3.197253 0.260486 6.971020 -3.086972 -6.861057 0.057854 -1.948617 27.589077 -0.141663 5.540206 24.442180 2.940200 0.000001 -64.992100 -0.431788 -0.046982 -3.553383 0.059717 -0.007258 -3.247695 -1.329544 -0.120275 0.986838 0.697092 -4.215777 -7.042831 0.575126 0.035056 0.168286 0.000000 0.000000 0.000000 14.644235 8.378775 2.702674 36.947136 -62.556298 -17.308611 0.140030 -61.400864 0.112229 -23.498490 12.642755 -2.701794 0.554362 -0.026614 0.000000 0.000000 0.000000 0.000000 0.000000 0.000000 0.000000 -8.576932 0.678936 2.373165 -1.587499 64.786025 17.338083 0.465534 41.583997 0.036207 21.603881 -6.755157 -1.318114 -0.395445 0.029150 0.000000 0.000000 0.000000 0.000000 0.000000 0.000000 0.000000 
-9.102033 17.927682 -1.935538 144.677867 86.542103 163.339508 -9.141175 1.251039 3.039951 -11.938731 0.874171 -32.392563 -3.397535 -1.087654 2.962735 -0.142313 -0.459750 4.581676 0.340600 0.000000 -52.279200 10.904639 -3.157837 0.129417 6.710010 -3.221963 -6.796086 -0.081787 -2.063924 29.909605 -0.226410 4.915903 23.571411 2.588400 0.000000 -65.165199 -0.511307 -0.139193 -3.377798 0.022267 -0.093784 -3.254568 -1.416857 -0.200421 0.788439 0.885289 -4.277993 -6.852090 0.512413 0.026670 0.222583 0.000000 0.000000 0.000000 14.273950 7.634348 2.505780 34.994145 -61.625858 -17.419050 0.220799 -62.472095 0.114660 -21.755817 10.647795 -2.090118 0.535518 0.039882 0.000000 0.000000 0.000000 0.000000 0.000000 0.000000 0.000000 -8.204051 0.760643 2.395547 -1.932183 64.648540 15.764340 0.399282 42.259166 0.040268 20.471075 -6.238098 -1.148005 -0.381503 0.004448 0.000000 0.000000 0.000000 0.000000 0.000000 0.000000 0.000000 
-8.884903 17.843569 -1.933828 143.183164 86.634245 161.470035 -9.107080 1.243731 3.037385 -11.747191 0.577131 -32.352318 -3.347211 -1.014612 3.553056 -0.129485 -0.396908 4.611000 0.348900 0.000000 -52.338200 11.000900 -3.112320 -0.009173 6.391366 -3.376886 -6.848064 -0.218572 -2.189576 32.441448 -0.312767 4.220185 22.460057 2.200500 0.000000 -65.380200 -0.630530 -0.244555 -3.227146 -0.024467 -0.191098 -3.270273 -1.509171 -0.291379 0.572846 1.095116 -4.220808 -6.631081 0.441038 0.017057 0.285622 0.000000 0.000000 0.000000 13.900184 6.860526 2.325208 33.252916 -60.657591 -17.842815 0.284633 -63.363596 0.115589 -20.238513 8.558599 -1.546443 0.519417 0.108612 0.000000 0.000000 0.000000 0.000000 0.000000 0.000000 0.000000 -7.805160 0.938744 2.394743 -2.156161 64.398725 13.911517 0.332536 42.887409 0.044100 19.369487 -5.429130 -0.939192 -0.368673 -0.026789 0.000000 0.000000 0.000000 0.000000 0.000000 0.000000 0.000000 
-8.669003 17.747011 -1.930762 141.081009 86.683830 159.024328 -9.060483 1.245401 3.064544 -11.518880 0.045391 -32.357970 -3.260925 -0.914349 4.541004 -0.067693 0.004208 4.484160 0.426100 -0.000000 -51.932500 11.118699 -3.062983 -0.149782 5.996023 -3.557247 -7.042750 -0.352031 -2.326634 35.178401 -0.399790 3.484834 21.140633 1.803600 -0.000000 -65.632500 -0.799877 -0.363738 -3.104298 -0.081484 -0.299007 -3.294665 -1.601507 -0.393188 0.344268 1.324376 -4.054543 -6.391454 0.364485 0.006735 0.353996 0.000000 0.000000 0.000000 13.539736 6.086250 2.163562 31.722851 -59.687355 -18.595286 0.334115 -64.049373 0.115245 -18.912260 6.549734 -1.088965 0.504853 0.175661 0.000000 0.000000 0.000000 0.000000 0.000000 0.000000 0.000000 -7.391006 1.203761 2.373787 -2.317712 64.044464 11.784397 0.266091 43.509709 0.047722 18.396968 -4.410049 -0.717276 -0.358613 -0.062762 0.000000 0.000000 0.000000 0.000000 0.000000 0.000000 0.000000 
-8.454749 17.638570 -1.926179 138.228873 86.684587 155.871378 -8.997958 1.254354 3.111182 -11.314206 -0.652084 -32.475917 -3.152499 -0.786789 5.983428 0.032234 0.636956 4.130568 0.543800 0.000000 -51.090000 11.261225 -3.012329 -0.284044 5.503812 -3.765303 -7.408023 -0.482838 -2.475616 38.110970 -0.486550 2.734719 19.647553 1.418900 0.000000 -65.882900 -1.032212 -0.496826 -3.011788 -0.150224 -0.416503 -3.328056 -1.688321 -0.505005 0.104545 1.570126 -3.800087 -6.144103 0.286790 -0.003766 0.424564 0.000000 0.000000 0.000000 13.211221 5.333259 2.017912 30.368273 -58.755702 -19.676918 0.373536 -64.508057 0.113805 -17.686116 4.732387 -0.717384 0.489860 0.238862 0.000000 0.000000 0.000000 0.000000 0.000000 0.000000 0.000000 -6.974802 1.540450 2.335852 -2.449182 63.599606 9.401397 0.199962 44.150765 0.051202 17.597650 -3.286842 -0.502459 -0.352032 -0.101356 0.000000 0.000000 0.000000 0.000000 0.000000 0.000000 0.000000 
